<svg width="96" height="12" viewBox="0 0 96 12" fill="none" xmlns="http://www.w3.org/2000/svg">
<path d="M8.04279 11.2813L5.75481 11.2921L5.3299 9.15491L3.19227 11.2856H0L6.72884 4.58203L8.04279 11.2813Z" fill="#F53E5A"/>
<path d="M6.75842 0.429688C3.73829 0.429688 1.28906 2.86106 1.28906 5.85917C1.28906 6.79581 1.52876 7.67837 1.94931 8.44845L3.68817 6.70928C3.61191 6.43889 3.5705 6.15336 3.5705 5.85917C3.5705 4.11351 4.99559 2.69666 6.75624 2.69666C8.51472 2.69666 9.94198 4.11135 9.94198 5.85917C9.94198 7.09648 9.22508 8.1694 8.18133 8.68855L8.62585 10.9642C10.7264 10.2049 12.2256 8.20617 12.2256 5.86133C12.2278 2.86106 9.77855 0.429688 6.75842 0.429688Z" fill="#0096FF"/>
<path d="M14.1641 5.98692V0.46875L16.561 0.46875V5.98692C16.561 8.03974 17.3738 9.2273 19.3327 9.2273C21.3069 9.2273 22.1044 8.03974 22.1044 5.9999V0.46875L24.5297 0.46875V6.00206C24.5297 9.32897 22.7364 11.4294 19.3327 11.4294C15.916 11.4294 14.1641 9.34411 14.1641 5.98692Z" fill="#0096FF"/>
<path d="M80.3347 0L86.3445 11.2829H83.7297L80.3086 4.55773L76.9093 11.2829H74.2422L80.3347 0Z" fill="#0096FF"/>
<path d="M38.2422 0.46875L40.6348 0.46875L40.6217 9.12563H46.1368V11.2844H38.2422V0.46875Z" fill="#0096FF"/>
<path d="M47.9609 0.46875L50.3535 0.46875V11.2866H47.9609V0.46875Z" fill="#0096FF"/>
<path d="M58.0441 2.64271H52.699V0.46875L61.9969 0.46875L56.3598 9.11266H62.0644L62.0361 11.2844H52.4375L58.0441 2.64271Z" fill="#0096FF"/>
<path d="M64.2266 0.46875L72.825 0.46875V2.6254L66.6061 2.6254V4.51815L70.9728 4.52896V6.61639H66.6061V9.12563H72.8381V11.2866H64.2266V0.46875Z" fill="#0096FF"/>
<path d="M31.0201 0L37.0298 11.2829H34.415L30.9939 4.55773L27.5946 11.2829H24.9297L31.0201 0Z" fill="#0096FF"/>
<path d="M87.75 0.46875L90.1426 0.46875L90.1295 9.12563H95.6446V11.2844H87.75V0.46875Z" fill="#0096FF"/>
</svg>
