<svg width="23" height="23" viewBox="0 0 23 23" fill="none" xmlns="http://www.w3.org/2000/svg">
<path d="M17.4643 17.4679H14.9258V13.49C14.9258 12.5415 14.9065 11.3208 13.6029 11.3208C12.2794 11.3208 12.0772 12.353 12.0772 13.42V17.4679H9.53863V9.28795H11.9772V10.4029H12.0101C12.3508 9.76004 13.1794 9.08152 14.4172 9.08152C16.9894 9.08152 17.4651 10.7744 17.4651 12.9779L17.4643 17.4679ZM6.67152 8.16866C5.85437 8.16866 5.19795 7.50723 5.19795 6.69366C5.19795 5.8808 5.85509 5.22009 6.67152 5.22009C7.4858 5.22009 8.1458 5.8808 8.1458 6.69366C8.1458 7.50723 7.48509 8.16866 6.67152 8.16866ZM7.94438 17.4679H5.39866V9.28795H7.94438V17.4679ZM18.7343 2.85938H4.12437C3.42509 2.85938 2.85938 3.41223 2.85938 4.09437V18.7673C2.85938 19.45 3.42509 20.0022 4.12437 20.0022H18.7323C19.4308 20.0022 20.0023 19.45 20.0023 18.7673V4.09437C20.0023 3.41223 19.4308 2.85938 18.7323 2.85938H18.7343Z" fill="#ADB5BD"/>
</svg>
