<svg width="484" height="173" viewBox="0 0 484 173" fill="none" xmlns="http://www.w3.org/2000/svg">
<g clip-path="url(#clip0_4447_6659)">
<g>
<animateTransform attributeName="transform" attributeType="XML" type="rotate" from="0 79 94" to="360 79 94" dur="16s" repeatCount="indefinite"/>
<path d="M49.5792 11.6384L19.9414 34.5195L78.7592 89.8881L134.838 31.3147L103.834 11.6384L79.671 67.9221L49.5792 11.6384Z" fill="#19BBE9"/>
<path d="M160.007 108.477L155.847 74.6111L82.668 94.7155L103.47 171.524L138.257 153.418L104.902 106.502L160.007 108.477Z" fill="#EF3A30"/>
<path d="M0 111.489L2.64134 74.6111L75.8202 94.7155L54.4508 172.345L19.9177 156.922L53.586 106.502L0 111.489Z" fill="#F2EB53"/>
</g>
<path d="M285.866 100.907C296.158 89.7923 301.374 76.9811 301.374 62.811C301.374 44.0616 294.236 28.6426 280.157 16.986C268.473 7.3089 255.066 2.40356 240.314 2.40356C224.063 2.40356 209.768 8.00797 197.825 19.0558C185.507 30.4727 179.258 44.9295 179.258 62.0216C179.258 79.475 185.867 94.0182 198.909 105.255C210.84 115.415 224.697 120.571 240.095 120.571C251.498 120.571 262.032 117.74 271.427 112.155L279.856 120.571H306.528L285.866 100.907ZM240.083 21.6164C251.548 21.6164 261.269 25.4928 268.97 33.1355C276.671 40.7783 280.572 50.3926 280.572 61.731C280.572 71.4199 277.488 79.7421 271.404 86.5012L255.712 71.2785H228.442L256.522 97.8082C251.18 100.252 245.367 101.486 239.496 101.421C229.126 101.421 219.762 97.6275 211.67 90.1536C203.949 82.9469 200.036 73.5289 200.036 62.163C200.036 50.4829 203.844 40.7115 211.361 33.1002C218.831 25.4849 228.492 21.6164 240.095 21.6164H240.083Z" fill="white"/>
<path d="M339.974 23.7053V46.7317H399.316V65.9446H339.974V99.3551H400.638V118.572H319.332V4.48853H400.638V23.7053H339.974Z" fill="white"/>
<path d="M204.671 143.318C200.132 143.318 196.431 144.961 193.57 148.247C191.311 150.759 190.067 154.026 190.083 157.41C190.06 159.243 190.418 161.06 191.136 162.746C191.853 164.431 192.914 165.947 194.251 167.197C195.585 168.506 197.164 169.536 198.898 170.227C200.632 170.918 202.485 171.256 204.35 171.223C206.978 171.221 209.562 170.545 211.856 169.259V164.357C211.23 164.87 210.577 165.347 209.899 165.787C209.335 166.154 208.739 166.468 208.119 166.726C206.937 167.223 205.663 167.461 204.382 167.425C203.05 167.454 201.727 167.211 200.492 166.71C199.256 166.21 198.136 165.463 197.197 164.515C196.246 163.591 195.494 162.48 194.99 161.251C194.486 160.023 194.239 158.703 194.266 157.375C194.239 156.03 194.484 154.694 194.988 153.449C195.492 152.203 196.244 151.073 197.197 150.128C198.121 149.161 199.236 148.397 200.47 147.884C201.704 147.372 203.031 147.122 204.366 147.152C206.941 147.152 209.431 148.132 211.836 150.093V145.286C209.66 144.013 207.19 143.335 204.671 143.318Z" fill="white"/>
<path d="M224.348 150.076C225.302 149.121 226.438 148.369 227.688 147.867C228.938 147.364 230.276 147.12 231.623 147.15C232.968 147.116 234.305 147.358 235.553 147.861C236.801 148.364 237.934 149.118 238.882 150.076C240.779 151.994 241.841 154.59 241.834 157.294C241.828 159.997 240.753 162.588 238.847 164.497C236.917 166.366 234.344 167.415 231.663 167.424C228.981 167.434 226.4 166.403 224.458 164.548C223.494 163.611 222.726 162.49 222.198 161.252C221.67 160.013 221.393 158.682 221.383 157.335C221.373 155.988 221.629 154.652 222.139 153.406C222.648 152.16 223.399 151.028 224.348 150.076ZM221.864 167.612C224.653 170.016 228.23 171.301 231.907 171.217C235.583 171.134 239.099 169.689 241.777 167.16C243.142 165.916 244.226 164.395 244.96 162.698C245.693 161.001 246.058 159.167 246.031 157.318C246.053 155.465 245.688 153.627 244.958 151.925C244.229 150.222 243.152 148.692 241.797 147.432C240.47 146.102 238.891 145.053 237.153 144.347C235.415 143.64 233.553 143.291 231.678 143.32C229.789 143.288 227.914 143.631 226.158 144.331C224.403 145.031 222.804 146.073 221.453 147.397C218.609 150.115 217.186 153.367 217.184 157.153C217.184 161.465 218.744 164.951 221.864 167.612Z" fill="white"/>
<path d="M257.054 170.751V151.923L277.183 172.389V143.86H273.02V162.547L252.891 142.03V170.751H257.054Z" fill="white"/>
<path d="M298.956 143.318C294.417 143.318 290.717 144.961 287.855 148.247C285.597 150.759 284.355 154.027 284.372 157.41C284.348 159.242 284.706 161.06 285.423 162.745C286.14 164.431 287.2 165.947 288.536 167.197C289.87 168.506 291.45 169.536 293.183 170.227C294.917 170.918 296.77 171.256 298.635 171.223C301.263 171.222 303.847 170.546 306.141 169.259V164.357C305.517 164.872 304.863 165.349 304.184 165.787C303.622 166.154 303.028 166.469 302.408 166.726C301.226 167.223 299.952 167.461 298.671 167.425C297.339 167.454 296.015 167.211 294.78 166.711C293.545 166.211 292.424 165.463 291.486 164.515C290.535 163.591 289.783 162.48 289.279 161.251C288.775 160.023 288.528 158.703 288.555 157.375C288.528 156.03 288.774 154.694 289.277 153.449C289.781 152.203 290.533 151.073 291.486 150.128C292.411 149.161 293.525 148.397 294.759 147.884C295.993 147.372 297.32 147.122 298.655 147.152C301.23 147.152 303.72 148.132 306.125 150.093V145.286C303.948 144.013 301.476 143.334 298.956 143.318Z" fill="white"/>
<path d="M313.027 143.853V170.741H325.305V166.928H317.19V143.853H313.027Z" fill="white"/>
<path d="M338.594 160.404L342.899 151.261L346.98 160.404H338.594ZM351.57 170.749H356.129L342.958 142.169L329.301 170.749H333.789L336.861 164.218H348.678L351.57 170.749Z" fill="white"/>
<path d="M355.914 143.853L368.017 172.767L380.402 143.853H375.843L368.107 162.489L360.473 143.853H355.914Z" fill="white"/>
<path d="M400.673 143.853H385.445V170.741H400.673V166.928H389.612V157.943H400.352V154.13H389.612V147.666H400.673V143.853Z" fill="white"/>
</g>
<path d="M419 4.57378C422.811 4.57378 426.242 5.15821 429.291 6.32706C432.391 7.54674 435.339 9.65576 438.134 12.6541C440.929 15.7033 443.749 19.9214 446.595 25.3082C447.916 27.7984 449.136 29.8058 450.254 31.3304C451.372 32.855 452.566 33.973 453.837 34.6845C455.107 35.396 456.657 35.7517 458.487 35.7517C460.367 35.7517 461.994 35.3452 463.366 34.532C464.789 33.7189 465.907 32.4992 466.72 30.873C467.533 29.2976 467.939 27.3156 467.939 24.9271C467.939 21.1156 466.948 18.0918 464.966 15.8558C462.985 13.6705 460.164 12.2984 456.505 11.7394L456.962 4.8787C462.248 5.48854 466.466 7.52133 469.617 10.9771C472.767 14.4328 474.343 19.0828 474.343 24.9271C474.343 28.6369 473.682 31.8132 472.361 34.4558C471.039 37.0984 469.185 39.1058 466.796 40.478C464.458 41.9009 461.739 42.6124 458.639 42.6124C455.895 42.6124 453.507 42.155 451.474 41.2402C449.492 40.3255 447.637 38.7755 445.909 36.5902C444.181 34.4558 442.326 31.5083 440.344 27.7476C437.752 22.8689 435.135 19.1591 432.493 16.6181C429.85 14.1279 427.487 12.8066 425.403 12.6541L425.403 42.6124L419 42.6124L419 4.57378ZM417.78 65.5861C417.78 61.2156 418.924 57.4295 421.211 54.2279C423.498 51.0262 426.75 48.5361 430.968 46.7574C435.186 45.0295 440.192 44.1656 445.985 44.1656C451.779 44.1656 456.785 45.0295 461.003 46.7574C465.271 48.5361 468.549 51.0262 470.836 54.2279C473.174 57.4295 474.343 61.2156 474.343 65.5861C474.343 70.0074 473.174 73.8189 470.836 77.0206C468.549 80.2222 465.297 82.687 461.079 84.4148C456.861 86.1935 451.83 87.0829 445.985 87.0829C440.192 87.0829 435.186 86.1935 430.968 84.4148C426.75 82.687 423.498 80.2222 421.211 77.0206C418.924 73.8189 417.78 70.0074 417.78 65.5861ZM424.184 65.5861C424.184 70.2615 426.064 73.8697 429.825 76.4107C433.636 78.9517 439.023 80.2222 445.985 80.2222C450.661 80.2222 454.625 79.6378 457.877 78.4689C461.18 77.3509 463.671 75.6992 465.348 73.514C467.076 71.3796 467.939 68.7369 467.939 65.5861C467.939 62.4861 467.076 59.8435 465.348 57.6582C463.671 55.5238 461.18 53.8721 457.877 52.7033C454.625 51.5852 450.661 51.0262 445.985 51.0262C439.023 51.0262 433.636 52.2967 429.825 54.8377C426.064 57.3787 424.184 60.9615 424.184 65.5861ZM419 88.6319C422.811 88.6319 426.242 89.2163 429.291 90.3852C432.391 91.6048 435.339 93.7139 438.134 96.7122C440.929 99.7614 443.749 103.979 446.595 109.366C447.916 111.857 449.136 113.864 450.254 115.388C451.372 116.913 452.566 118.031 453.837 118.743C455.107 119.454 456.657 119.81 458.487 119.81C460.367 119.81 461.994 119.403 463.366 118.59C464.789 117.777 465.907 116.557 466.72 114.931C467.533 113.356 467.939 111.374 467.939 108.985C467.939 105.174 466.948 102.15 464.966 99.9139C462.985 97.7286 460.164 96.3565 456.505 95.7975L456.962 88.9368C462.248 89.5466 466.466 91.5794 469.616 95.0352C472.767 98.4909 474.343 103.141 474.343 108.985C474.343 112.695 473.682 115.871 472.361 118.514C471.039 121.157 469.185 123.164 466.796 124.536C464.458 125.959 461.739 126.67 458.639 126.67C455.895 126.67 453.507 126.213 451.474 125.298C449.492 124.384 447.637 122.834 445.909 120.648C444.181 118.514 442.326 115.566 440.344 111.806C437.752 106.927 435.135 103.217 432.493 100.676C429.85 98.186 427.487 96.8647 425.403 96.7122L425.403 126.67L419 126.67L419 88.6319ZM417.78 148.196C417.78 144.13 418.695 140.649 420.525 137.752C422.405 134.906 425.149 132.721 428.757 131.197C432.366 129.723 436.736 128.986 441.869 128.986C446.341 128.986 450.534 129.342 454.447 130.053C458.36 130.815 461.79 132.01 464.738 133.636C467.736 135.313 470.074 137.498 471.751 140.192C473.479 142.936 474.343 146.316 474.343 150.33C474.343 155.158 473.148 158.893 470.76 161.536C468.422 164.179 465.348 166.034 461.536 167.101L460.926 160.24C463.061 159.63 464.763 158.563 466.034 157.038C467.304 155.565 467.939 153.329 467.939 150.33C467.939 145.858 466.034 142.326 462.222 139.734C458.411 137.193 452.643 135.847 444.918 135.694L445.223 134.322C447.053 134.881 448.73 135.847 450.254 137.219C451.83 138.642 453.075 140.37 453.989 142.402C454.955 144.486 455.438 146.824 455.438 149.416C455.438 152.973 454.675 156.098 453.151 158.792C451.626 161.485 449.466 163.569 446.671 165.043C443.927 166.567 440.7 167.329 436.99 167.329C433.026 167.329 429.596 166.516 426.699 164.89C423.853 163.264 421.643 161.002 420.067 158.106C418.543 155.26 417.78 151.956 417.78 148.196ZM424.184 148.348C424.184 151.906 425.302 154.802 427.538 157.038C429.825 159.325 432.975 160.469 436.99 160.469C439.48 160.469 441.64 159.986 443.47 159.02C445.299 158.055 446.697 156.708 447.662 154.98C448.679 153.252 449.187 151.245 449.187 148.958C449.187 146.519 448.679 144.334 447.662 142.402C446.697 140.471 445.299 138.947 443.47 137.829C441.64 136.711 439.48 136.152 436.99 136.152C434.5 136.152 432.289 136.634 430.358 137.6C428.427 138.616 426.902 140.039 425.784 141.869C424.717 143.698 424.184 145.858 424.184 148.348Z" fill="white"/>
<defs>
<clipPath id="clip0_4447_6659">
<rect width="400.678" height="170.367" fill="white" transform="translate(0 2.39722)"/>
</clipPath>
</defs>
</svg>
