<svg width="127" height="54" viewBox="0 0 127 54" fill="none" xmlns="http://www.w3.org/2000/svg">
<g clip-path="url(#clip0_3279_2428)">
<path d="M15.7066 2.92969L6.3125 10.1821L24.9556 27.7319L42.7304 9.16634L32.9034 2.92969L25.2445 20.7695L15.7066 2.92969Z" fill="#19BBE9"/>
<path d="M50.7244 33.621L49.4059 22.8867L26.2109 29.2591L32.8044 53.6044L43.8307 47.8657L33.2584 32.9948L50.7244 33.621Z" fill="#EF3A30"/>
<path d="M0 34.5758L0.837207 22.8867L24.0322 29.2591L17.2589 53.8646L6.31316 48.9761L16.9848 32.9948L0 34.5758Z" fill="#F2EB53"/>
<path d="M90.6034 31.2219C93.8654 27.699 95.5188 23.6383 95.5188 19.1469C95.5188 13.204 93.2564 8.31679 88.7938 4.6221C85.0903 1.55481 80.841 0 76.165 0C71.014 0 66.4832 1.77639 62.6978 5.27813C58.7933 8.89688 56.8125 13.4791 56.8125 18.8967C56.8125 24.4288 58.9074 29.0384 63.0413 32.5999C66.823 35.8203 71.2149 37.4548 76.0955 37.4548C79.7098 37.4548 83.0487 36.5573 86.0267 34.7871L88.6983 37.4548H97.1522L90.6034 31.2219ZM76.0918 6.08976C79.7259 6.08976 82.8069 7.31843 85.2478 9.74089C87.6887 12.1633 88.9253 15.2107 88.9253 18.8046C88.9253 21.8756 87.9479 24.5134 86.0192 26.6558L81.0456 21.8308H72.4019L81.3024 30.2397C79.609 31.0143 77.7666 31.4053 75.9058 31.385C72.619 31.385 69.6509 30.1824 67.086 27.8135C64.6388 25.5292 63.3985 22.5441 63.3985 18.9415C63.3985 15.2394 64.6053 12.1422 66.988 9.72968C69.3557 7.31594 72.418 6.08976 76.0955 6.08976H76.0918Z" fill="white"/>
<path d="M107.769 6.74726V14.0458H126.578V20.1355H107.769V30.7254H126.998V36.8164H101.227V0.65625H126.998V6.74726H107.769Z" fill="white"/>
<path d="M64.8742 44.6719C63.4355 44.6719 62.2625 45.1926 61.3555 46.2342C60.6394 47.0302 60.2453 48.0659 60.2503 49.1384C60.2429 49.7193 60.3565 50.2954 60.584 50.8296C60.8115 51.3639 61.1478 51.8444 61.5713 52.2405C61.9941 52.6553 62.4948 52.9817 63.0444 53.2008C63.5939 53.4198 64.1813 53.5271 64.7725 53.5165C65.6054 53.5161 66.4243 53.3018 67.1514 52.8941V51.3405C66.9531 51.5028 66.7461 51.6541 66.5313 51.7936C66.3525 51.9098 66.1636 52.0094 65.9669 52.0911C65.5923 52.2488 65.1885 52.3243 64.7824 52.3127C64.3604 52.3219 63.9409 52.2448 63.5494 52.0863C63.158 51.9277 62.8027 51.6909 62.5052 51.3903C62.2036 51.0974 61.9655 50.7453 61.8056 50.3559C61.6458 49.9665 61.5677 49.5482 61.5762 49.1272C61.5675 48.7011 61.6454 48.2777 61.8051 47.8828C61.9648 47.4879 62.2031 47.1298 62.5052 46.8304C62.7982 46.5238 63.1515 46.2816 63.5426 46.1191C63.9338 45.9567 64.3543 45.8776 64.7775 45.8868C65.5936 45.8868 66.3828 46.1976 67.1452 46.8192V45.2955C66.4555 44.8921 65.6725 44.6771 64.8742 44.6719Z" fill="white"/>
<path d="M71.1148 46.8137C71.4169 46.511 71.7769 46.2729 72.1732 46.1135C72.5694 45.9541 72.9937 45.8768 73.4205 45.8863C73.8467 45.8755 74.2706 45.9523 74.6662 46.1117C75.0618 46.2712 75.4208 46.5101 75.7212 46.8137C76.3227 47.4219 76.6592 48.2446 76.6571 49.1015C76.655 49.9584 76.3145 50.7795 75.7101 51.3847C75.0986 51.9771 74.2828 52.3095 73.433 52.3125C72.5832 52.3155 71.7651 51.9889 71.1495 51.4009C70.844 51.1038 70.6005 50.7486 70.4331 50.3561C70.2658 49.9636 70.1779 49.5415 70.1747 49.1146C70.1715 48.6877 70.2529 48.2643 70.4143 47.8693C70.5757 47.4743 70.8138 47.1154 71.1148 46.8137ZM70.3272 52.3719C71.2113 53.1341 72.3452 53.5412 73.5105 53.5148C74.6757 53.4883 75.7901 53.0303 76.6391 52.2287C77.0715 51.8345 77.4153 51.3525 77.6478 50.8146C77.8802 50.2767 77.996 49.6954 77.9873 49.1092C77.9943 48.5218 77.8785 47.9394 77.6473 47.3997C77.4162 46.86 77.0748 46.375 76.6453 45.9759C76.2248 45.5543 75.7242 45.2217 75.1732 44.9978C74.6223 44.774 74.0322 44.6633 73.4378 44.6726C72.8393 44.6622 72.2447 44.7711 71.6884 44.9928C71.1321 45.2146 70.6252 45.545 70.1969 45.9647C69.2956 46.8261 68.8446 47.8569 68.8438 49.0569C68.8438 50.4237 69.3382 51.5287 70.3272 52.3719Z" fill="white"/>
<path d="M81.4916 53.3613V47.3936L87.8717 53.8804V44.8379H86.552V50.7609L80.1719 44.2578V53.3613H81.4916Z" fill="white"/>
<path d="M94.748 44.6719C93.3092 44.6719 92.1363 45.1926 91.2292 46.2342C90.5135 47.0303 90.1198 48.0661 90.1254 49.1384C90.1176 49.7192 90.2311 50.2953 90.4583 50.8295C90.6856 51.3638 91.0217 51.8444 91.4451 52.2405C91.8679 52.6553 92.3686 52.9817 92.9181 53.2008C93.4677 53.4198 94.0551 53.5271 94.6463 53.5165C95.4792 53.5162 96.2982 53.302 97.0252 52.8941V51.3405C96.8274 51.5034 96.6203 51.6547 96.405 51.7936C96.2269 51.91 96.0384 52.0096 95.8419 52.0911C95.4673 52.2488 95.0635 52.3243 94.6575 52.3127C94.2354 52.322 93.8158 52.2451 93.4244 52.0865C93.0329 51.9279 92.6776 51.691 92.3802 51.3903C92.0787 51.0974 91.8405 50.7453 91.6807 50.3559C91.5208 49.9665 91.4427 49.5482 91.4513 49.1272C91.4425 48.7011 91.5204 48.2777 91.6801 47.8828C91.8399 47.4879 92.0781 47.1298 92.3802 46.8304C92.6732 46.5238 93.0265 46.2816 93.4176 46.1191C93.8088 45.9567 94.2293 45.8776 94.6525 45.8868C95.4686 45.8868 96.2579 46.1976 97.0202 46.8192V45.2955C96.3301 44.8919 95.5467 44.6769 94.748 44.6719Z" fill="white"/>
<path d="M99.2188 44.8359V53.3582H103.11V52.1496H100.538V44.8359H99.2188Z" fill="white"/>
<path d="M107.321 50.0806L108.685 47.1826L109.979 50.0806H107.321ZM111.434 53.3595H112.879L108.704 44.3008L104.375 53.3595H105.798L106.771 51.2893H110.517L111.434 53.3595Z" fill="white"/>
<path d="M112.797 44.8359L116.633 54.0005L120.559 44.8359H119.114L116.662 50.7427L114.242 44.8359H112.797Z" fill="white"/>
<path d="M126.998 44.8359H122.172V53.3582H126.998V52.1496H123.493V49.3018H126.897V48.0933H123.493V46.0445H126.998V44.8359Z" fill="white"/>
</g>
<defs>
<clipPath id="clip0_3279_2428">
<rect width="127" height="54" fill="white"/>
</clipPath>
</defs>
</svg>
