<svg width="23" height="23" viewBox="0 0 23 23" fill="none" xmlns="http://www.w3.org/2000/svg">
<g clip-path="url(#clip0_3279_2426)">
<path fill-rule="evenodd" clip-rule="evenodd" d="M21.6641 4.60229C22.0188 4.95921 22.2734 5.40301 22.4027 5.88929C22.8806 7.68409 22.8806 11.4269 22.8806 11.4269C22.8806 11.4269 22.8806 15.1698 22.4027 16.9646C22.2734 17.4509 22.0188 17.8947 21.6641 18.2516C21.3095 18.6085 20.8673 18.866 20.3819 18.9984C18.5949 19.4789 11.452 19.4789 11.452 19.4789C11.452 19.4789 4.30915 19.4789 2.52214 18.9984C2.0367 18.866 1.59454 18.6085 1.2399 18.2516C0.885262 17.8947 0.630586 17.4509 0.50136 16.9646C0.0234376 15.1698 0.0234375 11.4269 0.0234375 11.4269C0.0234375 11.4269 0.0234376 7.68409 0.50136 5.88929C0.630586 5.40301 0.885262 4.95921 1.2399 4.60229C1.59454 4.24537 2.0367 3.98786 2.52214 3.85552C4.30915 3.375 11.452 3.375 11.452 3.375C11.452 3.375 18.5949 3.375 20.3819 3.85552C20.8673 3.98786 21.3095 4.24537 21.6641 4.60229ZM15.0884 11.427L9.11436 8.02828V14.8257L15.0884 11.427Z" fill="#ADB5BD"/>
</g>
<defs>
<clipPath id="clip0_3279_2426">
<rect width="22.8571" height="22.8571" fill="white"/>
</clipPath>
</defs>
</svg>
